<svg xmlns="http://www.w3.org/2000/svg" width="200.501" height="169.918" viewBox="0 0 200.501 169.918">
    <defs>
        <radialGradient id="7bo9f0tuia" cx=".491" cy=".759" r=".7" gradientTransform="matrix(1 0 0 .649 0 .236)" gradientUnits="objectBoundingBox">
            <stop offset="0" stop-color="#302e3d"/>
            <stop offset=".32" stop-color="#302e3d"/>
            <stop offset="1" stop-color="#302e3d" stop-opacity="0"/>
        </radialGradient>
    </defs>
    <g data-name="Сгруппировать 18596" style="opacity:.6">
        <g data-name="Cosmostation (1)">
            <path data-name="Контур 48851" d="m55.1 322.017 12.521-8.094s17.508 33.666 22.6 43.871a3.936 3.936 0 0 0 4.032 2.463q19.258-.176 38.517 0a3.808 3.808 0 0 0 3.82-2.346c6.472-12.551 12.945-25.1 19.524-37.654a4.613 4.613 0 0 0 0-4.81c-7.215-13.607-22.707-43.754-22.707-43.754l12.627-8.094s19.205 37.185 25.466 49.033a10.879 10.879 0 0 1 0 10.792c-8.276 15.836-16.553 31.789-24.617 47.625-2.016 3.871-4.669 5.63-8.595 5.513a3542.803 3542.803 0 0 0-49.87 0 7.908 7.908 0 0 1-7.534-4.692C72.5 355.917 55.1 322.017 55.1 322.017z" transform="translate(-21.225 -220.349)" style="fill:#2b2936"/>
            <path data-name="Контур 48852" d="m191.16 294.646-12.413 7.977s-15.6-29.912-22.6-43.519a4.246 4.246 0 0 0-4.35-2.815q-19.1.176-38.194 0a4.035 4.035 0 0 0-4.032 2.581c-6.26 12.317-12.519 24.516-18.991 36.6-1.379 2.463-1.167 4.223.106 6.569 7 13.373 22.174 42.933 22.174 42.933l-12.413 8.094s-17.4-33.431-25.463-48.8a11.023 11.023 0 0 1 0-11.144q12.416-23.579 24.51-47.392c2.016-3.988 4.774-5.631 8.806-5.631q24.826.176 49.652 0a7.811 7.811 0 0 1 7.533 4.692z" transform="translate(-22.045 -221.613)" style="fill:#2b2936"/>
        </g>
        <g data-name="Cosmostation (1)">
            <path data-name="Контур 48851" d="m55.1 322.017 12.39-8.094s17.324 33.666 22.364 43.871a3.891 3.891 0 0 0 3.99 2.463q19.057-.176 38.114 0a3.764 3.764 0 0 0 3.78-2.346c6.4-12.551 12.81-25.1 19.319-37.654a4.655 4.655 0 0 0 0-4.81c-7.14-13.607-22.469-43.754-22.469-43.754l12.495-8.094s19 37.185 25.2 49.033a10.979 10.979 0 0 1 0 10.792c-8.19 15.836-16.379 31.789-24.359 47.625-1.995 3.871-4.62 5.63-8.5 5.513a3469.026 3469.026 0 0 0-49.348 0 7.818 7.818 0 0 1-7.455-4.692C72.319 355.917 55.1 322.017 55.1 322.017z" transform="translate(-23.992 -221.349)" style="fill:#383746"/>
            <path data-name="Контур 48852" d="m189.926 294.646-12.283 7.977s-15.432-29.913-22.361-43.523a4.2 4.2 0 0 0-4.3-2.815q-18.9.176-37.794 0a3.99 3.99 0 0 0-3.989 2.581C103 271.185 96.807 283.385 90.4 295.467c-1.365 2.463-1.155 4.223.1 6.569 6.929 13.373 21.941 42.933 21.941 42.933l-12.283 8.094s-17.217-33.431-25.2-48.8a11.124 11.124 0 0 1 0-11.144q12.283-23.578 24.251-47.39c1.995-3.988 4.724-5.631 8.714-5.631q24.566.176 49.132 0a7.722 7.722 0 0 1 7.454 4.692z" transform="translate(-20.813 -225.415)" style="fill:#383746"/>
        </g>
        <path data-name="Прямоугольник 4934" style="fill:url(#7bo9f0tuia)" d="M0 0h200.501v169.918H0z"/>
    </g>
</svg>
