<svg data-name="Cosmostation (1)" xmlns="http://www.w3.org/2000/svg" width="38.849" height="36" viewBox="0 0 38.849 36">
    <path data-name="Контур 48851" d="m55.1 278.563 3.545-2.073s4.958 8.623 6.4 11.237a1.132 1.132 0 0 0 1.142.631q5.453-.045 10.907 0a1.1 1.1 0 0 0 1.082-.6c1.833-3.215 3.666-6.43 5.528-9.645a1.086 1.086 0 0 0 0-1.232c-2.043-3.485-6.43-11.207-6.43-11.207l3.575-2.073s5.438 9.525 7.211 12.559a2.557 2.557 0 0 1 0 2.764 1239.687 1239.687 0 0 0-6.971 12.2 2.5 2.5 0 0 1-2.434 1.412c-4.717-.03-9.4-.03-14.122 0a2.273 2.273 0 0 1-2.133-1.2c-2.372-4.09-7.3-12.773-7.3-12.773z" transform="translate(-55.1 -256.539)" style="fill:#fff"/>
    <path data-name="Контур 48852" d="m106.8 254.071-3.515 2.043s-4.417-7.662-6.4-11.147a1.214 1.214 0 0 0-1.232-.721q-5.408.045-10.817 0a1.155 1.155 0 0 0-1.142.661c-1.773 3.155-3.545 6.28-5.378 9.374a1.4 1.4 0 0 0 .03 1.683c1.983 3.425 6.28 11 6.28 11l-3.515 2.073s-4.928-8.563-7.211-12.5a2.593 2.593 0 0 1 0-2.854q3.515-6.039 6.941-12.139a2.584 2.584 0 0 1 2.494-1.442q7.031.045 14.061 0a2.244 2.244 0 0 1 2.133 1.2z" transform="translate(-67.954 -240.1)" style="fill:#fff"/>
</svg>
