<svg data-name="Сгруппировать 17850" xmlns="http://www.w3.org/2000/svg" width="32" height="32" viewBox="0 0 32 32">
    <path data-name="Контур 2195" d="M32 32H0V0h32z" transform="rotate(90 16 16)" style="fill:none"/>
    <g data-name="noun_qr scan_4036890">
        <g data-name="Layer 2">
            <path data-name="Контур 22742" d="M10.191 20.191H3V13h7.191zM4.8 18.393h3.6V14.8H4.8z" transform="translate(4.91 3.899)" style="fill:#9595a6"/>
            <path data-name="Контур 22743" d="M20.191 10.191H13V3h7.191zM14.8 8.393h3.6V4.8h-3.6z" transform="translate(3.899 4.91)" style="fill:#9595a6"/>
            <path data-name="Контур 22744" d="M10.191 10.191H3V3h7.191zM4.8 8.393h3.6V4.8H4.8z" transform="translate(4.91 4.91)" style="fill:#9595a6"/>
            <path data-name="Контур 22745" d="M20.6 20.6H17v-1.8h1.8V17h1.8z" transform="translate(3.494 3.494)" style="fill:#9595a6"/>
            <path data-name="Контур 22746" d="M14.8 20.73H13v-6.308h1.8v2.169h1.386v2.341H14.8z" transform="translate(3.899 3.36)" style="fill:#9595a6"/>
            <path data-name="Прямоугольник 2711" transform="translate(20.999 18)" style="fill:#9595a6" d="M0 0h3v1H0z"/>
        </g>
    </g>
</svg>
