<svg xmlns="http://www.w3.org/2000/svg" xmlns:xlink="http://www.w3.org/1999/xlink" width="12.24" height="15.71" viewBox="0 0 12.24 15.71">
  <defs>
    <style>
      .cls-1 {
        fill: none;
      }

      .cls-2 {
        clip-path: url(#clip-path);
      }

      .cls-3 {
        fill: #a8a9ba;
      }
    </style>
    <clipPath id="clip-path">
      <path id="Контур_22749" data-name="Контур 22749" class="cls-1" d="M16.106,8.13a3.7,3.7,0,0,1,3.151-3.65A3.356,3.356,0,0,1,16.106,8.13Zm3.978,4.931a3.22,3.22,0,0,0,2.243,3.061v.034a9.473,9.473,0,0,1-2.45,3.606c-.883.94-2.174.044-2.174.044a3,3,0,0,0-2.584-.022,1.574,1.574,0,0,1-2.061-.022C11.72,18.787,10.552,16,10.552,16c-1.676-5.213,1.723-6.914,1.723-6.914,1.654-1.112,3.922.454,3.922.454,3.944-2.384,5.673.526,5.73.627a3.217,3.217,0,0,0-1.842,2.891Z" transform="translate(0)"/>
    </clipPath>
  </defs>
  <g id="apple" class="cls-2" transform="translate(-10.087 -4.48)">
    <rect id="Прямоугольник_2712" data-name="Прямоугольник 2712" class="cls-3" width="15.384" height="18.837" transform="translate(8.522 2.914)"/>
  </g>
</svg>
