<svg xmlns="http://www.w3.org/2000/svg" xmlns:xlink="http://www.w3.org/1999/xlink" width="200.501" height="171.014" viewBox="0 0 200.501 171.014">
    <defs>
        <radialGradient id="4l0xonm2za" cx=".491" cy=".759" r=".7" gradientTransform="matrix(1 0 0 .649 0 .236)" gradientUnits="objectBoundingBox">
            <stop offset="0" stop-color="#302e3d"/>
            <stop offset=".32" stop-color="#302e3d"/>
            <stop offset="1" stop-color="#302e3d" stop-opacity="0"/>
        </radialGradient>
        <radialGradient id="eo3ri07rrc" cx=".473" cy=".774" r=".7" gradientTransform="matrix(1 0 0 .485 0 .398)" xlink:href="#4l0xonm2za"/>
        <linearGradient id="k37i7dx45b" x1=".5" x2=".5" y2=".675" gradientUnits="objectBoundingBox">
            <stop offset="0" stop-color="#302e3d" stop-opacity="0"/>
            <stop offset="1" stop-color="#302e3d"/>
        </linearGradient>
    </defs>
    <g data-name="Сгруппировать 18596" style="opacity:.6">
        <g data-name="Сгруппировать 18595">
            <path data-name="Контур 22776" d="M362.8 225.685c-25.062-15.364-34.822-3.36-37.036 17.982-5.761-41.052 6-56.57 26.912-46.161a99.094 99.094 0 0 1 24.781 17.837 21.972 21.972 0 0 0 15.651 6.313" transform="translate(-293.199 -166.722)" style="fill:#23222e"/>
            <path data-name="Контур 22777" d="M420.522 221.655a23.517 23.517 0 0 0 15.757-6.531 105.654 105.654 0 0 1 25.133-17.618c20.944-10.408 32.722 5.109 26.952 46.162a302.596 302.596 0 0 0-7.865 6.342c.247-6.466-.562-13.964-.652-19.608-.294-18.372-23.79-11.711-35.93 3.76-7.049 8.983 2.546 21.272 13.51 29.438a36.391 36.391 0 0 0 5.989 1.333c-4.43 3.983-9.52 8.608-15.584 14.137-7.618-7.862-17.365-17.94-27.108-27.4" transform="translate(-320.712 -166.721)" style="fill:#23222e"/>
            <path data-name="Контур 22778" d="M393.315 221.654a23.47 23.47 0 0 1-15.537-6.527 105.58 105.58 0 0 0-25.1-17.618c-20.913-10.409-32.678 5.109-26.911 46.159a303.267 303.267 0 0 1 7.854 6.341c-.243-6.466.564-13.961.65-19.611.293-18.371 23.756-11.709 35.874 3.759 7.04 8.985-2.542 21.275-13.488 29.436a36.745 36.745 0 0 1-5.983 1.334c4.42 3.987 9.5 8.609 15.559 14.141 7.609-7.865 17.349-17.95 27.083-27.412s-.001-30.002-.001-30.002z" transform="translate(-293.198 -166.722)" style="fill:#23222e"/>
            <path data-name="Контур 22779" d="M433.617 325.226c4.4 11.6 13.147 22.4 22.531 28.593 23.9 12.985 37.784-7.213 31.723-28.915-2.721-9.739-12.9-29.007-28.74-36.1-3.976-1.778-29.914 24.819-25.514 36.422zM444.467 306c1.125-6.953 4.181-6.38 5.866-5.587 6.843 3.223 15.075 11.142 17.987 19.124 4.159 11.4-2.976 18.57-12.281 11.922-8.492-6.072-13.139-15.794-11.572-25.459z" transform="translate(-324.313 -187.031)" style="fill:#23222e"/>
            <path data-name="Контур 22780" d="M360.274 288.806c-15.836 7.091-26.02 26.359-28.74 36.1-6.061 21.7 7.82 41.9 31.723 28.915 9.384-6.2 18.132-16.989 22.531-28.593s-21.538-38.202-25.514-36.422zm3.093 42.648c-9.305 6.648-16.44-.517-12.282-11.922 2.911-7.982 11.144-15.9 17.987-19.124 1.684-.793 4.741-1.366 5.865 5.587 1.563 9.67-3.079 19.392-11.569 25.459z" transform="translate(-294.86 -187.031)" style="fill:#23222e"/>
        </g>
        <path data-name="Прямоугольник 4934" style="fill:url(#4l0xonm2za)" d="M0 0h200.501v169.918H0z"/>
        <path data-name="Контур 48835" d="M430.3 196.575c46.461-17.384 19.02 71.648-41.326 71.648s-87.786-89.032-41.325-71.648c-50.638-28.424-63.762 42.8-3.048 81.757 18.038 11.574 36.211 32.89 12.117 54.247 15.26-8.207 19.038-23.046 32.256-23.046s17 14.839 32.256 23.046c-24.094-21.356-5.922-42.673 12.117-54.247 60.711-38.956 47.587-110.181-3.047-81.757z" transform="translate(-288.859 -165.79)" style="fill:#3e3e4d"/>
        <path data-name="Прямоугольник 4935" transform="translate(4.326 76.737)" style="fill:url(#k37i7dx45b)" d="M0 0h191.879v94.277H0z"/>
        <path data-name="Прямоугольник 4936" transform="translate(4.326 32.339)" style="fill:url(#eo3ri07rrc)" d="M0 0h191.879v138.675H0z"/>
    </g>
</svg>
