<svg xmlns="http://www.w3.org/2000/svg" width="45.044" height="35.223" viewBox="0 0 45.044 35.223">
    <g data-name="logo onomy">
        <g data-name="Сгруппировать 7579">
            <path data-name="Контур 22776" d="M334.7 201.892c-6.768-3.691-9.4-.807-10 4.32-1.556-9.862 1.62-13.589 7.267-11.089a26.9 26.9 0 0 1 6.692 4.285 6.344 6.344 0 0 0 4.227 1.516" transform="translate(-320.42 -193.553)" style="fill:#e1dfeb"/>
            <path data-name="Контур 22777" d="M420.522 200.923a6.781 6.781 0 0 0 4.255-1.569 28.8 28.8 0 0 1 6.787-4.232c5.656-2.5 8.836 1.227 7.278 11.089-.7.488-1.395.983-2.124 1.523.067-1.553-.152-3.354-.176-4.71-.079-4.413-6.424-2.813-9.7.9-1.9 2.158.688 5.11 3.648 7.072a10.864 10.864 0 0 0 1.617.32c-1.2.957-2.571 2.068-4.208 3.4-2.057-1.889-4.69-4.31-7.32-6.582" transform="translate(-398.082 -193.553)" style="fill:#e1dfeb"/>
            <path data-name="Контур 22778" d="M342.942 200.926a6.761 6.761 0 0 1-4.2-1.568 28.768 28.768 0 0 0-6.778-4.232c-5.648-2.5-8.824 1.227-7.268 11.089.7.488 1.392.982 2.121 1.523-.066-1.553.152-3.354.175-4.711.079-4.413 6.415-2.813 9.688.9 1.9 2.159-.687 5.111-3.643 7.071a10.973 10.973 0 0 1-1.616.32c1.194.958 2.566 2.068 4.2 3.4 2.055-1.889 4.685-4.312 7.314-6.585s.007-7.207.007-7.207z" transform="translate(-320.419 -193.557)" style="fill:#e1dfeb"/>
            <path data-name="Контур 22779" d="M433.251 297.49a15.367 15.367 0 0 0 6.084 6.869c6.455 3.119 10.2-1.733 8.567-6.946-.735-2.34-3.485-6.968-7.761-8.672-1.073-.427-8.078 5.959-6.89 8.749zm2.93-4.62c.3-1.67 1.129-1.533 1.584-1.342a9.843 9.843 0 0 1 4.857 4.594c1.123 2.74-.8 4.461-3.317 2.864a6.107 6.107 0 0 1-3.124-6.116z" transform="translate(-408.247 -270.118)" style="fill:#e1dfeb"/>
            <path data-name="Контур 22780" d="M338.26 288.741c-4.276 1.7-7.027 6.332-7.761 8.672-1.637 5.213 2.112 10.065 8.567 6.946a15.367 15.367 0 0 0 6.084-6.869c1.188-2.79-5.816-9.176-6.89-8.749zm.835 10.245c-2.513 1.6-4.44-.124-3.317-2.864a9.842 9.842 0 0 1 4.857-4.594c.455-.191 1.28-.328 1.584 1.342a6.107 6.107 0 0 1-3.119 6.116z" transform="translate(-325.109 -270.118)" style="fill:#e1dfeb"/>
            <path data-name="Контур 22781" d="M337.641 191.613c12.336-4.176 5.05 17.212-10.972 17.212s-23.309-21.388-10.969-17.212c-13.445-6.828-16.93 10.282-.809 19.64 4.789 2.78 9.615 7.9 3.217 13.031 4.052-1.971 5.055-5.536 8.564-5.536s4.513 3.565 8.564 5.536c-6.4-5.13-1.572-10.251 3.217-13.031 16.117-9.358 12.633-26.468-.812-19.64z" transform="translate(-304.147 -190.044)" style="fill:#fff"/>
        </g>
        <path data-name="Контур 22782" d="m410.153 265.7-2.58 2.592a3.826 3.826 0 0 1 2.574-1.086 4.067 4.067 0 0 1 2.585 1.086z" transform="translate(-387.63 -251.434)" style="fill:#e1dfeb"/>
    </g>
</svg>
